<svg xmlns="http://www.w3.org/2000/svg" version="1.1" xmlns:xlink="http://www.w3.org/1999/xlink" xmlns:svgjs="http://svgjs.dev/svgjs" width="1000" height="1000" viewBox="0 0 1000 1000"><rect width="1000" height="1000" fill="#000000"></rect><g transform="matrix(0.7,0,0,0.7,149.5757656418681,431.070562185478)"><svg viewBox="0 0 396 78" data-background-color="#ffffff" preserveAspectRatio="xMidYMid meet" height="196" width="1000" xmlns="http://www.w3.org/2000/svg" xmlns:xlink="http://www.w3.org/1999/xlink"><defs></defs><g id="tight-bounds" transform="matrix(1,0,0,1,0.23999543688603353,0.1872897196261647)"><svg viewBox="0 0 395.52 77.62542056074767" height="77.62542056074767" width="395.52"><g><svg viewBox="0 0 395.52 77.62542056074767" height="77.62542056074767" width="395.52"><g><svg viewBox="0 0 395.52 77.62542056074767" height="77.62542056074767" width="395.52"><g><svg viewBox="0 0 395.52 77.62542056074767" height="77.62542056074767" width="395.52"><g><svg viewBox="0 0 395.52 77.62542056074767" height="77.62542056074767" width="395.52"><g transform="matrix(1,0,0,1,0,0)"><svg width="395.52" viewBox="1.5499999523162842 -33.5 187.22999572753906 36.75" height="77.62542056074767" data-palette-color="#000000"><path d="M27.05-13.9L27.05-13.9Q24.05-13.9 22-15.28 19.95-16.65 19.95-18.75L19.95-18.75Q19.95-21.4 23.4-24.05L23.4-24.05Q24-24.5 24.3-24.5 24.6-24.5 24.6-24.3L24.6-24.3Q24.6-23.8 23.8-23.5L23.8-23.5Q21-21.25 21-18.95L21-18.95Q21-17.3 22.5-16.18 24-15.05 26.25-15.05L26.25-15.05Q31.15-15.05 35.5-19.75L35.5-19.75Q37.75-22.2 37.75-25.4 37.75-28.6 35.35-30.15L35.35-30.15Q33.35-31.55 29.95-31.55L29.95-31.55Q25.05-31.55 20.1-29.1L20.1-29.1Q14-26.15 9.08-19.93 4.15-13.7 4.15-7.95L4.15-7.95Q4.15-3.4 7.25-0.93 10.35 1.55 14.95 1.55L14.95 1.55Q20.2 1.55 25.25-1L25.25-1Q29.1-3 31.9-6.1L31.9-6.1Q32.7-7 33.15-7L33.15-7Q33.45-7 33.45-6.48 33.45-5.95 32.9-5.4L32.9-5.4Q30.25-2.6 25.25 0L25.25 0Q19.1 3.25 12.88 3.25 6.65 3.25 3.6-0.85L3.6-0.85Q1.55-3.55 1.55-7.3L1.55-7.3Q1.55-8.95 1.95-10.85L1.95-10.85Q3.3-17.25 9.05-23.3L9.05-23.3Q13.2-27.65 18.9-30.08 24.6-32.5 29.7-32.5L29.7-32.5Q32.4-32.5 34.4-31.85L34.4-31.85Q39.85-30.15 39.85-25L39.85-25Q39.85-21.85 38-19.55L38-19.55Q33.4-13.9 27.05-13.9ZM38.25-2.5Q38.25-1 39.9-1 41.55-1 44.15-2.75 46.75-4.5 49.2-7.5L49.2-7.5Q49.8-8.3 50.15-8.3 50.5-8.3 50.5-8L50.5-8Q50.5-7.7 48.45-5.4L48.45-5.4Q43.45 0.1 40.1 0.1L40.1 0.1Q38.45 0.1 37.3-0.68 36.15-1.45 36.15-3.08 36.15-4.7 37-6.85L37-6.85Q38.45-10.25 41.65-15.4L41.65-15.4Q47.5-24.9 49.95-24.9L49.95-24.9Q50.45-24.9 50.97-24.53 51.5-24.15 51.55-23.7L51.55-23.7Q50.4-22.15 47.12-17.75 43.85-13.35 42.6-11.43 41.35-9.5 40.72-8.55 40.1-7.6 39.8-7.08 39.5-6.55 39.1-5.7L39.1-5.7Q38.25-4 38.25-2.5ZM62.45 0.3L62.45 0.3Q62.2 0.35 61.37 0.35 60.55 0.35 59.72-0.3 58.9-0.95 58.9-1.98 58.9-3 59.27-4.25 59.65-5.5 59.8-6.15L59.8-6.15Q54.05 0.55 50.8 0.55L50.8 0.55Q48.75 0.55 48.55-2L48.55-2Q48.55-2.2 48.55-2.35L48.55-2.35Q48.55-4.5 51.15-8.15L51.15-8.15Q49.7-6.85 48.2-5.15L48.2-5.15Q48-4.95 47.7-4.95L47.7-4.95Q47.5-4.95 47.5-5.2 47.5-5.45 47.95-6.05L47.95-6.05 54.85-14.15Q56.15-15.65 57.5-15.65 58.85-15.65 58.85-14.75L58.85-14.75Q58.85-14.4 58.55-14.1L58.55-14.1Q56.55-12.25 53.52-7.95 50.5-3.65 50.5-1.6L50.5-1.6Q50.5-0.7 51.1-0.7L51.1-0.7Q53.2-0.7 57.2-4.85L57.2-4.85Q58.6-6.25 62.4-11.03 66.2-15.8 67.4-15.8L67.4-15.8Q69.2-15.8 69.2-14.4L69.2-14.4Q69.2-13.9 67.1-11.5L67.1-11.5Q64.25-8.05 62.75-5.88 61.25-3.7 61.25-2.35 61.25-1 62-1L62-1Q62.35-1 62.8-1.2L62.8-1.2Q66.25-2.7 71.05-8.2L71.05-8.2Q71.35-8.55 71.65-8.55 71.95-8.55 71.95-8.22 71.95-7.9 71.6-7.5L71.6-7.5Q69.45-5 66.55-2.48 63.65 0.05 62.45 0.3ZM81.09-12.45L81.09-12.45Q81.09-15.85 83.19-15.85L83.19-15.85Q83.39-15.85 83.64-15.8L83.64-15.8Q84.49-15.65 84.49-14.5 84.49-13.35 84.09-11.6L84.09-11.6Q83.69-10.3 83.54-9.65L83.54-9.65Q83.69-8.8 84.37-7.48 85.04-6.15 86.22-6.15 87.39-6.15 88.84-7.75L88.84-7.75Q89.14-8.1 89.42-8.1 89.69-8.1 89.72-7.78 89.74-7.45 89.34-6.9L89.34-6.9Q87.79-5.05 86.09-5.05L86.09-5.05Q83.64-5.05 82.14-8.65L82.14-8.65Q80.59-5.1 77.74-2.53 74.89 0.05 72.09 0.05L72.09 0.05Q69.44 0.05 69.44-3.95L69.44-3.95Q69.44-7.1 75.32-15.55 81.19-24 84.29-24L84.29-24Q84.94-24 85.47-23.6 85.99-23.2 85.99-22.65L85.99-22.65Q85.99-22.7 85.27-21.9 84.54-21.1 81.32-17.6 78.09-14.1 74.99-9.9 71.89-5.7 71.89-3.4L71.89-3.4Q71.89-2.8 72.22-2.1 72.54-1.4 73.29-1.4L73.29-1.4Q75.49-1.4 78.44-4.8L78.44-4.8Q80.89-7.8 81.44-9.85L81.44-9.85Q81.09-10.9 81.09-12.45ZM136.34-9.45L136.34-9.45Q136.34-7.65 135.54-6.05L135.54-6.05Q133.84-2.45 129.04-0.05 124.24 2.35 119.04 2.35L119.04 2.35Q111.14 2.35 108.29-3.05L108.29-3.05Q103.14 1.25 100.94 1.25L100.94 1.25Q100.54 1.25 100.24 1.1L100.24 1.1Q98.74 0.3 98.74-2.35 98.74-5 100.94-8.85 103.14-12.7 104.79-13.4L104.79-13.4Q105.54-13.65 105.94-13.65L105.94-13.65Q107.39-13.65 108.14-11.25L108.14-11.25 109.64-6.45Q111.09-8 113.59-11.4L113.59-11.4 118.04-17.4Q126.24-28.05 128.79-29.05L128.79-29.05Q129.69-29.4 130.64-29.4 131.59-29.4 132.21-29 132.84-28.6 132.84-28L132.84-28Q132.84-27.1 131.39-26.95L131.39-26.95Q129.89-26.1 125.66-21.98 121.44-17.85 120.64-16.75L120.64-16.75Q115.04-8.95 110.29-4.75L110.29-4.75Q113.34 1.3 119.44 1.3L119.44 1.3Q123.14 1.3 126.79-1.03 130.44-3.35 132.24-6.75L132.24-6.75Q133.04-8.2 133.04-10 133.04-11.8 131.61-13.43 130.19-15.05 128.04-15.8L128.04-15.8Q127.04-15.95 124.84-16.23 122.64-16.5 122.64-17.15L122.64-17.15Q122.64-17.4 122.84-17.6L122.84-17.6Q123.44-18.3 124.39-18.3L124.39-18.3Q124.94-18.3 125.46-18.1 125.99-17.9 126.29-17.8 126.59-17.7 126.99-17.55L126.99-17.55Q128.09-17.45 128.89-17.45L128.89-17.45Q132.19-17.45 134.89-18.5L134.89-18.5Q138.34-19.85 139.29-22.55L139.29-22.55Q139.89-24.3 139.89-25.7L139.89-25.7Q139.89-29.15 136.54-30.85L136.54-30.85Q133.64-32.35 128.59-32.35L128.59-32.35Q120.64-32.35 114.34-29.35L114.34-29.35Q111.14-27.85 108.26-24.9 105.39-21.95 105.39-19.85L105.39-19.85Q105.39-18.4 106.14-17.45L106.14-17.45Q106.44-17.05 107.19-16.45L107.19-16.45Q107.44-16.3 106.89-16.3L106.89-16.3Q103.79-17 103.79-20.45 103.79-23.9 107.29-26.95L107.29-26.95Q109.89-29.2 113.14-30.6L113.14-30.6Q119.89-33.5 128.49-33.5L128.49-33.5Q134.64-33.5 138.29-31.7L138.29-31.7Q142.54-29.7 142.54-25.65L142.54-25.65Q142.54-24.05 141.89-22.4L141.89-22.4Q140.84-19.4 136.44-17.85L136.44-17.85Q133.14-16.7 129.34-16.65L129.34-16.65Q132.29-16.5 134.31-14.48 136.34-12.45 136.34-9.45ZM104.39-11.3L104.39-11.3Q104.34-11.3 104.14-11.2L104.14-11.2Q100.44-5.85 100.44-2.6L100.44-2.6Q100.44-1.25 101.09-0.15L101.09-0.15Q101.24 0.1 101.59 0.1L101.59 0.1Q103.19 0.1 107.74-4.45L107.74-4.45 107.59-4.65Q105.59-11.3 104.39-11.3ZM151.84-10.6L151.84-10.6Q151.84-8.85 148.49-4.75L148.49-4.75Q144.54 0.1 141.74 0.1L141.74 0.1 140.94 0.1Q139.64 0.1 138.89-1.25L138.89-1.25Q138.29-2.2 138.29-3.35L138.29-3.35Q138.29-6.35 142.66-11.78 147.04-17.2 149.74-17.2L149.74-17.2Q152.29-17.2 152.29-14.5L152.29-14.5Q152.29-13.8 152.04-12.7L152.04-12.7Q152.09-12.55 152.99-12.55 153.89-12.55 155.74-13.5L155.74-13.5Q155.69-12.65 151.79-11.05L151.79-11.05Q151.84-10.85 151.84-10.6ZM148.59-13.2L148.59-13.2Q146.89-13.2 143.76-9.2 140.64-5.2 140.64-3.3 140.64-1.4 141.84-1.4L141.84-1.4Q143.99-1.4 147.29-5.3 150.59-9.2 150.59-10.9L150.59-10.9Q149.79-11.35 148.59-13.2ZM165.88-10.6L165.88-10.6Q165.88-8.85 162.53-4.75L162.53-4.75Q158.58 0.1 155.78 0.1L155.78 0.1 154.98 0.1Q153.68 0.1 152.93-1.25L152.93-1.25Q152.33-2.2 152.33-3.35L152.33-3.35Q152.33-6.35 156.71-11.78 161.08-17.2 163.78-17.2L163.78-17.2Q166.33-17.2 166.33-14.5L166.33-14.5Q166.33-13.8 166.08-12.7L166.08-12.7Q166.13-12.55 167.03-12.55 167.93-12.55 169.78-13.5L169.78-13.5Q169.73-12.65 165.83-11.05L165.83-11.05Q165.88-10.85 165.88-10.6ZM162.63-13.2L162.63-13.2Q160.93-13.2 157.81-9.2 154.68-5.2 154.68-3.3 154.68-1.4 155.88-1.4L155.88-1.4Q158.03-1.4 161.33-5.3 164.63-9.2 164.63-10.9L164.63-10.9Q163.83-11.35 162.63-13.2ZM177.13 0.6L177.13 0.6Q173.18 0.6 170.43-5.65L170.43-5.65Q169.73-4.6 167.28 0.25L167.28 0.25Q165.48-0.45 165.48-1.65L165.48-1.65Q165.48-3.8 171.93-13.45 178.38-23.1 180.78-24.8L180.78-24.8Q180.98-24.95 181.58-24.95L181.58-24.95Q183.13-24.95 183.13-24.15L183.13-24.15Q183.13-23.75 179.66-19.65 176.18-15.55 175.78-14.7L175.78-14.7Q180.33-17.05 183.03-17.05L183.03-17.05Q184.58-17.05 185.68-15.8L185.68-15.8Q186.73-14.75 186.73-13.65L186.73-13.65Q186.73-13.5 186.73-13.35L186.73-13.35Q186.33-10.5 182.73-8.65L182.73-8.65Q179.83-7.1 177.33-7.1 174.83-7.1 173.83-7.75L173.83-7.75Q173.53-7.8 173.36-7.6 173.18-7.4 173.28-7.1L173.28-7.1Q174.68-0.9 177.93-0.9L177.93-0.9Q179.63-0.9 182.31-2.8 184.98-4.7 187.88-8.15L187.88-8.15Q188.23-8.5 188.51-8.5 188.78-8.5 188.78-8.22 188.78-7.95 188.43-7.45L188.43-7.45Q185.73-4.15 183.33-2.25L183.33-2.25Q179.68 0.6 177.13 0.6ZM184.33-14.7L184.33-14.7Q184.33-15.1 183.88-15.5 183.43-15.9 182.93-15.9L182.93-15.9Q180.23-15.9 176.46-13.65 172.68-11.4 171.83-8.55L171.83-8.55Q172.28-8.55 174.23-8.4L174.23-8.4Q176.48-8.4 180.13-10.25L180.13-10.25Q184.33-12.35 184.33-14.7Z" opacity="1" transform="matrix(1,0,0,1,0,0)" fill="#ffffff" class="undefined-text-0" data-fill-palette-color="primary" id="text-0"></path></svg></g></svg></g></svg></g></svg></g><g></g></svg></g></svg><rect width="395.52" height="77.62542056074767" fill="none" stroke="none" visibility="hidden"></rect></g></svg></g></svg>